HIERARCHY
ROOT reference
{
  OFFSET 0 0 0
  CHANNELS 6 Xposition Yposition Zposition Zrotation Xrotation Yrotation
  JOINT Hips
  {
    OFFSET 346.547 88.4868 223.89
    CHANNELS 3 Zrotation Xrotation Yrotation
    JOINT RightUpLeg
    {
      OFFSET -9.27468 -1.51611 -0.00175448
      CHANNELS 3 Zrotation Xrotation Yrotation
      JOINT RightLeg
      {
        OFFSET -0.00464511 -41.8738 0.0184652
        CHANNELS 3 Zrotation Xrotation Yrotation
        JOINT RightFoot
        {
          OFFSET -0.626239 -42.3044 -0.171503
          CHANNELS 3 Zrotation Xrotation Yrotation
          End Site
          {
            OFFSET 0 -7.69 17.5
          }
        }
      }
    }
    JOINT LeftUpLeg
    {
      OFFSET 9.30083 -1.68454 -0.0454748
      CHANNELS 3 Zrotation Xrotation Yrotation
      JOINT LeftLeg
      {
        OFFSET 0.0692631 -41.8513 -0.097029
        CHANNELS 3 Zrotation Xrotation Yrotation
        JOINT LeftFoot
        {
          OFFSET 0.520945 -41.523 0.446349
          CHANNELS 3 Zrotation Xrotation Yrotation
          End Site
          {
            OFFSET 0 -7.69 17.5
          }
        }
      }
    }
    JOINT Spine
    {
      OFFSET 0.0770133 14.2992 0.0590021
      CHANNELS 3 Zrotation Xrotation Yrotation
      JOINT Spine1
      {
        OFFSET 0.0471461 9.71665 0.020973
        CHANNELS 3 Zrotation Xrotation Yrotation
        JOINT Spine2
        {
          OFFSET 0.051283 10.117 0.000913966
          CHANNELS 3 Zrotation Xrotation Yrotation
          JOINT Spine3
          {
            OFFSET 0.0447963 9.71088 0.00221408
            CHANNELS 3 Zrotation Xrotation Yrotation
            JOINT Neck
            {
              OFFSET 0.115655 10.3749 0.0448519
              CHANNELS 3 Zrotation Xrotation Yrotation
              JOINT Head
              {
                OFFSET 0.0937003 9.47807 0.0215077
                CHANNELS 3 Zrotation Xrotation Yrotation
                End Site
                {
                  OFFSET 0 15.95 0
                }
              }
            }
            JOINT RightShoulder
            {
              OFFSET -3.17023 6.91072 -0.0050072
              CHANNELS 3 Zrotation Xrotation Yrotation
              JOINT RightArm
              {
                OFFSET -12.7573 0.00694711 0.0313031
                CHANNELS 3 Zrotation Xrotation Yrotation
                JOINT RightForeArm
                {
                  OFFSET -26.5152 -0.0619338 -0.0331286
                  CHANNELS 3 Zrotation Xrotation Yrotation
                  JOINT RightHand
                  {
                    OFFSET -25.9971 0.0398378 -0.0269922
                    CHANNELS 3 Zrotation Xrotation Yrotation
                    JOINT RightHandThumb1
                    {
                      OFFSET -2.48905 0.190105 3.12053
                      CHANNELS 3 Zrotation Xrotation Yrotation
                      JOINT RightHandThumb2
                      {
                        OFFSET -3.68274 0 0
                        CHANNELS 3 Zrotation Xrotation Yrotation
                        JOINT RightHandThumb3
                        {
                          OFFSET -2.55832 0 0
                          CHANNELS 3 Zrotation Xrotation Yrotation
                          End Site
                          {
                            OFFSET -2.194 0 0
                          }
                        }
                      }
                    }
                    JOINT RightInHandIndex
                    {
                      OFFSET -3.22368 0.508421 1.97842
                      CHANNELS 3 Zrotation Xrotation Yrotation
                      JOINT RightHandIndex1
                      {
                        OFFSET -5.21684 -0.091368 0.999158
                        CHANNELS 3 Zrotation Xrotation Yrotation
                        JOINT RightHandIndex2
                        {
                          OFFSET -3.61937 0 0
                          CHANNELS 3 Zrotation Xrotation Yrotation
                          JOINT RightHandIndex3
                          {
                            OFFSET -2.0521 0 0
                            CHANNELS 3 Zrotation Xrotation Yrotation
                            End Site
                            {
                              OFFSET -1.805 0 0
                            }
                          }
                        }
                      }
                    }
                    JOINT RightInHandMiddle
                    {
                      OFFSET -3.38211 0.517263 0.756737
                      CHANNELS 3 Zrotation Xrotation Yrotation
                      JOINT RightHandMiddle1
                      {
                        OFFSET -5.17411 -0.084 0.313895
                        CHANNELS 3 Zrotation Xrotation Yrotation
                        JOINT RightHandMiddle2
                        {
                          OFFSET -3.94947 0 0
                          CHANNELS 3 Zrotation Xrotation Yrotation
                          JOINT RightHandMiddle3
                          {
                            OFFSET -2.47579 0 0
                            CHANNELS 3 Zrotation Xrotation Yrotation
                            End Site
                            {
                              OFFSET -1.975 0 0
                            }
                          }
                        }
                      }
                    }
                    JOINT RightInHandRing
                    {
                      OFFSET -3.36516 0.537895 -0.128947
                      CHANNELS 3 Zrotation Xrotation Yrotation
                      JOINT RightHandRing1
                      {
                        OFFSET -4.63474 -0.022105 -0.478947
                        CHANNELS 3 Zrotation Xrotation Yrotation
                        JOINT RightHandRing2
                        {
                          OFFSET -3.44238 0 0
                          CHANNELS 3 Zrotation Xrotation Yrotation
                          JOINT RightHandRing3
                          {
                            OFFSET -2.3881 0 0
                            CHANNELS 3 Zrotation Xrotation Yrotation
                            End Site
                            {
                              OFFSET -1.857 0 0
                            }
                          }
                        }
                      }
                    }
                    JOINT RightInHandPinky
                    {
                      OFFSET -3.16105 0.469368 -1.20179
                      CHANNELS 3 Zrotation Xrotation Yrotation
                      JOINT RightHandPinky1
                      {
                        OFFSET -4.14105 -0.022105 -1.09053
                        CHANNELS 3 Zrotation Xrotation Yrotation
                        JOINT RightHandPinky2
                        {
                          OFFSET -2.75653 0 0
                          CHANNELS 3 Zrotation Xrotation Yrotation
                          JOINT RightHandPinky3
                          {
                            OFFSET -1.74189 0 0
                            CHANNELS 3 Zrotation Xrotation Yrotation
                            End Site
                            {
                              OFFSET -1.645 0 0
                            }
                          }
                        }
                      }
                    }
                  }
                }
              }
            }
            JOINT LeftShoulder
            {
              OFFSET 3.25178 6.92057 -0.0384945
              CHANNELS 3 Zrotation Xrotation Yrotation
              JOINT LeftArm
              {
                OFFSET 12.8462 -0.0383255 -0.0637898
                CHANNELS 3 Zrotation Xrotation Yrotation
                JOINT LeftForeArm
                {
                  OFFSET 26.4888 -0.0608964 -0.0673835
                  CHANNELS 3 Zrotation Xrotation Yrotation
                  JOINT LeftHand
                  {
                    OFFSET 25.9932 -0.0402352 -0.0274148
                    CHANNELS 3 Zrotation Xrotation Yrotation
                    JOINT LeftHandThumb1
                    {
                      OFFSET 2.48905 0.190105 3.12053
                      CHANNELS 3 Zrotation Xrotation Yrotation
                      JOINT LeftHandThumb2
                      {
                        OFFSET 3.68274 0 0
                        CHANNELS 3 Zrotation Xrotation Yrotation
                        JOINT LeftHandThumb3
                        {
                          OFFSET 2.55832 0 0
                          CHANNELS 3 Zrotation Xrotation Yrotation
                          End Site
                          {
                            OFFSET 2.194 0 0
                          }
                        }
                      }
                    }
                    JOINT LeftInHandIndex
                    {
                      OFFSET 3.22368 0.508421 1.97842
                      CHANNELS 3 Zrotation Xrotation Yrotation
                      JOINT LeftHandIndex1
                      {
                        OFFSET 5.21684 -0.091368 0.999158
                        CHANNELS 3 Zrotation Xrotation Yrotation
                        JOINT LeftHandIndex2
                        {
                          OFFSET 3.61937 0 0
                          CHANNELS 3 Zrotation Xrotation Yrotation
                          JOINT LeftHandIndex3
                          {
                            OFFSET 2.0521 0 0
                            CHANNELS 3 Zrotation Xrotation Yrotation
                            End Site
                            {
                              OFFSET 1.805 0 0
                            }
                          }
                        }
                      }
                    }
                    JOINT LeftInHandMiddle
                    {
                      OFFSET 3.38211 0.517263 0.756737
                      CHANNELS 3 Zrotation Xrotation Yrotation
                      JOINT LeftHandMiddle1
                      {
                        OFFSET 5.17411 -0.084 0.313895
                        CHANNELS 3 Zrotation Xrotation Yrotation
                        JOINT LeftHandMiddle2
                        {
                          OFFSET 3.94947 0 0
                          CHANNELS 3 Zrotation Xrotation Yrotation
                          JOINT LeftHandMiddle3
                          {
                            OFFSET 2.47579 0 0
                            CHANNELS 3 Zrotation Xrotation Yrotation
                            End Site
                            {
                              OFFSET 1.975 0 0
                            }
                          }
                        }
                      }
                    }
                    JOINT LeftInHandRing
                    {
                      OFFSET 3.36516 0.537895 -0.128947
                      CHANNELS 3 Zrotation Xrotation Yrotation
                      JOINT LeftHandRing1
                      {
                        OFFSET 4.63474 -0.022105 -0.478947
                        CHANNELS 3 Zrotation Xrotation Yrotation
                        JOINT LeftHandRing2
                        {
                          OFFSET 3.44238 0 0
                          CHANNELS 3 Zrotation Xrotation Yrotation
                          JOINT LeftHandRing3
                          {
                            OFFSET 2.3881 0 0
                            CHANNELS 3 Zrotation Xrotation Yrotation
                            End Site
                            {
                              OFFSET 1.857 0 0
                            }
                          }
                        }
                      }
                    }
                    JOINT LeftInHandPinky
                    {
                      OFFSET 3.16105 0.469368 -1.20179
                      CHANNELS 3 Zrotation Xrotation Yrotation
                      JOINT LeftHandPinky1
                      {
                        OFFSET 4.14105 -0.022105 -1.09053
                        CHANNELS 3 Zrotation Xrotation Yrotation
                        JOINT LeftHandPinky2
                        {
                          OFFSET 2.75653 0 0
                          CHANNELS 3 Zrotation Xrotation Yrotation
                          JOINT LeftHandPinky3
                          {
                            OFFSET 1.74189 0 0
                            CHANNELS 3 Zrotation Xrotation Yrotation
                            End Site
                            {
                              OFFSET 1.645 0 0
                            }
                          }
                        }
                      }
                    }
                  }
                }
              }
            }
          }
        }
      }
    }
  }
}
MOTION
Frames:	5
Frame Time:	0.00833333
0 0 0 0 0 -0 20.505 11.7461 -63.2795 -15.46 -50.7602 -16.9712 -3.97725 27.6054 -10.7316 10.0027 2.17614 22.0137 10.2003 -44.4101 -1.64499 8.91827 33.0515 -5.31725 -15.3614 -12.6365 -17.5171 -6.80243 16.9152 14.7867 -1.28548 4.29709 3.49197 -2.16154 6.79597 5.72034 -0.0735543 -0.211374 -0.580981 -0.0735193 -0.212537 -0.581376 -1.68408 -4.04627 -10.3517 -2.266 -10.9824 26.1747 72.3978 -8.05969 55.2082 35.4672 -59.0384 19.9448 22.0631 -26.6877 -21.8102 28.184 10.7294 19.1592 2.04831e-14 1.68967e-15 -10 1.83938e-14 3.57812e-15 -10 -5.29669e-31 4.77083e-15 6.36111e-15 19.9818 0.871897 2.3964 24 1.11319e-14 3.18055e-15 20 2.06736e-14 2.54444e-14 -5.29669e-31 4.77083e-15 6.36111e-15 20 1.59028e-15 9.54166e-15 24 1.82882e-14 -0 20 7.95139e-15 3.18055e-14 -5.29669e-31 4.77083e-15 6.36111e-15 19.9748 -1.02565 -2.81938 24 -1.74931e-14 1.59028e-14 20 -4.77083e-15 1.59028e-14 -5.29669e-31 4.77083e-15 6.36111e-15 19.7815 -3.00948 -8.30515 24 3.18055e-15 9.54166e-15 20 -7.95139e-15 2.8625e-14 15.8186 -12.6991 -32.1358 -39.3994 23.5192 -73.8458 17.8239 -52.1373 26.7591 -27.3274 -28.2121 9.25053 -28.184 10.7294 -19.1592 -4.77679e-15 -9.54166e-15 10 -3.22962e-15 0 10 3.18055e-15 -6.36111e-15 -3.18055e-15 -19.9818 0.871897 -2.3964 -24 -7.95139e-15 6.36111e-15 -20 -2.38542e-15 -1.27222e-14 3.18055e-15 -6.36111e-15 -3.18055e-15 -20 -1.27222e-14 -0 -24 -7.95139e-16 3.18055e-15 -20 -7.95139e-16 -1.90833e-14 3.18055e-15 -6.36111e-15 -3.18055e-15 -19.9748 -1.02565 2.81938 -24 6.36111e-15 6.36111e-15 -20 -1.59028e-15 -2.22639e-14 3.18055e-15 -6.36111e-15 -3.18055e-15 -19.7815 -3.00948 8.30515 -24 -5.96354e-15 1.27222e-14 -20 9.54166e-15 -4.13472e-14 
0 0 0 0 0 -0 20.5358 11.6154 -63.5416 -15.2862 -50.8123 -16.5913 -3.98717 27.5645 -10.6963 9.99683 2.23501 21.9891 10.3044 -44.3655 -1.46861 8.78859 33.1866 -5.18746 -15.3092 -12.7274 -17.4639 -6.84257 16.8834 14.8324 -1.295 4.29016 3.50118 -2.17676 6.78482 5.73345 -0.0827759 -0.211374 -0.574711 -0.0827545 -0.212537 -0.575061 -1.84357 -4.00298 -10.2389 -2.14766 -10.7052 25.8942 72.6718 -8.18759 55.2278 36.1605 -59.5988 20.5917 22.4801 -25.904 -21.8081 28.184 10.7294 19.1592 3.6481e-14 5.41688e-15 -10 2.70988e-14 7.15625e-15 -10 0 1.27222e-14 -0 19.9818 0.871897 2.3964 24 1.59028e-14 1.27222e-14 20 1.27222e-14 2.8625e-14 0 1.27222e-14 -0 20 -4.77083e-15 9.54166e-15 24 1.74931e-14 1.90833e-14 20 -4.77083e-15 4.45278e-14 0 1.27222e-14 -0 19.9748 -1.02565 -2.81938 24 -6.36111e-15 2.22639e-14 20 -4.77083e-15 9.54166e-15 0 1.27222e-14 -0 19.7815 -3.00948 -8.30515 24 -3.97569e-15 1.27222e-14 20 9.54166e-15 3.18055e-14 15.6954 -12.7689 -32.2116 -39.1728 23.7288 -73.956 17.8997 -51.6253 26.8516 -27.1765 -28.1871 9.31213 -28.184 10.7294 -19.1592 2.6688e-15 3.18055e-15 10 9.68886e-15 0 10 -9.54166e-15 -9.54166e-15 6.36111e-15 -19.9818 0.871897 -2.3964 -24 4.77083e-15 6.36111e-15 -20 3.57812e-15 -2.22639e-14 -9.54166e-15 -9.54166e-15 6.36111e-15 -20 -1.27222e-14 -1.27222e-14 -24 3.18055e-15 2.22639e-14 -20 -3.18055e-15 9.54166e-15 -9.54166e-15 -9.54166e-15 6.36111e-15 -19.9748 -1.02565 2.81938 -24 8.74653e-15 3.18055e-15 -20 7.95139e-16 -3.18055e-15 -9.54166e-15 -9.54166e-15 6.36111e-15 -19.7815 -3.00948 8.30515 -24 4.77083e-15 1.59028e-14 -20 -1.59028e-15 -1.59028e-14 
0 0 0 0 0 -0 20.5645 11.4896 -63.8191 -15.0986 -50.8876 -16.2078 -4.00481 27.5396 -10.6437 9.99371 2.29503 21.9653 10.408 -44.3159 -1.2852 8.66824 33.3183 -5.08195 -15.2452 -12.8224 -17.3828 -6.8657 16.8545 14.8689 -1.30084 4.28274 3.50919 -2.18547 6.77251 5.74519 -0.0939015 -0.211374 -0.56773 -0.0938915 -0.212537 -0.568031 -2.03763 -3.96389 -10.1129 -1.98152 -10.4152 25.557 72.8777 -8.22044 55.2212 36.7867 -60.5065 21.0771 23.0966 -24.8546 -21.7977 28.184 10.7294 19.1592 -1.9685e-14 1.65737e-14 -10 2.73592e-14 1.77912e-14 -10 6.36111e-15 1.59028e-15 -0 19.9818 0.871897 2.3964 24 1.23246e-14 -9.54166e-15 20 2.8625e-14 4.13472e-14 6.36111e-15 1.59028e-15 -0 20 -1.90833e-14 9.54166e-15 24 1.78906e-14 -6.36111e-15 20 1.59028e-15 4.13472e-14 6.36111e-15 1.59028e-15 -0 19.9748 -1.02565 -2.81938 24 -1.03368e-14 3.18055e-15 20 -7.95139e-15 3.49861e-14 6.36111e-15 1.59028e-15 -0 19.7815 -3.00948 -8.30515 24 2.10712e-14 -1.27222e-14 20 0 5.40694e-14 15.577 -12.8356 -32.3017 -38.9913 23.9486 -74.0424 17.9634 -51.071 26.8953 -27.0188 -28.1003 9.41387 -28.184 10.7294 -19.1592 -1.54717e-15 -9.54166e-15 10 -2.10798e-15 -6.36111e-15 10 -3.18055e-15 -6.36111e-15 6.36111e-15 -19.9818 0.871897 -2.3964 -24 -5.56597e-15 -9.54166e-15 -20 3.18055e-15 -1.90833e-14 -3.18055e-15 -6.36111e-15 6.36111e-15 -20 9.54166e-15 -3.18055e-15 -24 -7.95139e-16 -1.27222e-14 -20 7.95139e-16 -1.59028e-14 -3.18055e-15 -6.36111e-15 6.36111e-15 -19.9748 -1.02565 2.81938 -24 1.43125e-14 -9.54166e-15 -20 -5.56597e-15 -2.8625e-14 -3.18055e-15 -6.36111e-15 6.36111e-15 -19.7815 -3.00948 8.30515 -24 4.77083e-15 -1.27222e-14 -20 8.74653e-15 -4.77083e-14 
0 0 0 0 0 -0 20.5907 11.3564 -64.1031 -14.9592 -51.0046 -15.9224 -4.04527 27.5594 -10.5138 9.99377 2.35914 21.9488 10.5042 -44.2523 -1.10608 8.55922 33.4334 -4.96946 -15.1922 -12.9079 -17.3007 -6.88225 16.8269 14.8934 -1.30288 4.27514 3.51436 -2.19222 6.75985 5.75247 -0.105535 -0.209761 -0.559541 -0.105544 -0.211016 -0.559793 -2.24084 -3.92853 -9.9651 -1.97829 -10.2621 25.4945 72.952 -8.18886 55.1799 38.3914 -60.5345 23.0551 22.8549 -25.0049 -21.796 28.184 10.7294 19.1592 6.07172e-14 1.00759e-14 -10 2.39393e-14 7.55382e-15 -10 -9.54166e-15 4.77083e-15 -0 19.9818 0.871897 2.3964 24 3.97569e-16 2.54444e-14 20 1.43125e-14 2.22639e-14 -9.54166e-15 4.77083e-15 -0 20 2.38542e-15 1.59028e-14 24 1.59028e-14 2.22639e-14 20 -4.77083e-15 1.59028e-14 -9.54166e-15 4.77083e-15 -0 19.9748 -1.02565 -2.81938 24 -1.11319e-14 3.18055e-14 20 -3.18055e-15 3.18055e-15 -9.54166e-15 4.77083e-15 -0 19.7815 -3.00948 -8.30515 24 7.95139e-16 1.27222e-14 20 -6.36111e-15 2.8625e-14 15.4682 -12.8964 -32.405 -38.8561 24.1607 -74.095 17.9737 -50.4618 26.8771 -27.1354 -28.5899 9.2404 -28.184 10.7294 -19.1592 5.60818e-16 -3.18055e-15 10 7.02006e-15 -3.18055e-15 10 -3.18055e-15 -9.54166e-15 -0 -19.9818 0.871897 -2.3964 -24 0 9.54166e-15 -20 2.78299e-15 -1.90833e-14 -3.18055e-15 -9.54166e-15 -0 -20 3.18055e-15 -0 -24 1.59028e-15 3.18055e-15 -20 6.36111e-15 -9.54166e-15 -3.18055e-15 -9.54166e-15 -0 -19.9748 -1.02565 2.81938 -24 7.95139e-15 -3.18055e-15 -20 -2.38542e-15 -1.90833e-14 -3.18055e-15 -9.54166e-15 -0 -19.7815 -3.00948 8.30515 -24 2.78299e-15 1.27222e-14 -20 3.97569e-15 -2.8625e-14 
0 0 0 0 0 -0 20.6117 11.2316 -64.4107 -14.7354 -51.1109 -15.5972 -4.13773 27.5637 -10.3532 10.0068 2.41687 21.9445 10.6194 -44.1832 -0.90202 8.461 33.5538 -4.86552 -15.1377 -13.0016 -17.2146 -6.8887 16.799 14.9185 -1.30404 4.26669 3.52078 -2.19503 6.74555 5.76171 -0.117813 -0.208207 -0.550503 -0.11784 -0.209555 -0.550691 -2.45577 -3.89991 -9.80163 -1.97515 -10.1008 25.3881 72.7375 -7.81985 55.2816 40.093 -60.9432 25.3041 22.6566 -25.2437 -21.737 28.184 10.7294 19.1592 1.67848e-13 -1.65488e-14 -10 1.97207e-14 -2.6339e-15 -10 0 1.11319e-14 -0 19.9818 0.871897 2.3964 24 6.75868e-15 3.18055e-14 20 2.22639e-14 -7.95139e-15 0 1.11319e-14 -0 20 9.54166e-15 1.90833e-14 24 7.15625e-15 4.45278e-14 20 0 6.36111e-15 0 1.11319e-14 -0 19.9748 -1.02565 -2.81938 24 -4.37326e-15 4.13472e-14 20 -1.11319e-14 -6.36111e-15 0 1.11319e-14 -0 19.7815 -3.00948 -8.30515 24 1.51076e-14 1.27222e-14 20 -3.18055e-15 1.59028e-14 15.3563 -12.9572 -32.5272 -38.7294 24.3589 -74.1334 17.937 -49.8261 26.8262 -27.5114 -29.705 8.77166 -28.184 10.7294 -19.1592 -5.89842e-15 -3.18055e-15 10 1.61481e-14 0 10 -0 0 6.36111e-15 -19.9818 0.871897 -2.3964 -24 -9.54166e-15 9.54166e-15 -20 -7.95139e-16 -9.54166e-15 -0 0 6.36111e-15 -20 -9.54166e-15 -1.27222e-14 -24 -2.38542e-15 1.27222e-14 -20 -5.56597e-15 -3.18055e-15 -0 0 6.36111e-15 -19.9748 -1.02565 2.81938 -24 1.03368e-14 6.36111e-15 -20 -1.59028e-15 -3.18055e-15 -0 0 6.36111e-15 -19.7815 -3.00948 8.30515 -24 -1.47101e-14 1.59028e-14 -20 7.95139e-16 -2.54444e-14 
